<svg width="240" height="240" viewBox="0 0 240 240" fill="none" xmlns="http://www.w3.org/2000/svg">
<path d="M61.5 96.956L62.652 95.3C65.532 95.876 69.168 97.064 71.184 98L70.068 99.836C68.052 98.828 64.38 97.568 61.5 96.956ZM57.9 101.528L59.16 99.692C64.02 100.232 70.248 101.636 73.74 102.788L72.552 104.804C69.096 103.58 62.868 102.14 57.9 101.528ZM51.024 78.344H81.012V109.88H78.312V108.368H53.616V109.88H51.024V78.344ZM53.616 105.956H78.312V80.792H53.616V105.956ZM62.904 81.512L65.172 82.304C64.74 83.024 64.236 83.708 63.696 84.392H73.02L73.416 84.284L74.964 85.184C73.452 87.632 71.184 89.684 68.484 91.448C71.292 92.744 74.46 93.716 77.628 94.292C77.124 94.76 76.44 95.696 76.116 96.344C72.696 95.588 69.276 94.364 66.288 92.744C62.868 94.58 59.088 95.912 55.56 96.74C55.308 96.092 54.732 95.048 54.264 94.544C57.468 93.896 60.924 92.816 63.984 91.376C62.544 90.404 61.212 89.324 60.132 88.172C59.016 89.144 57.9 90.008 56.82 90.728C56.424 90.296 55.488 89.468 54.912 89.108C58.008 87.272 61.104 84.464 62.904 81.512ZM61.608 86.732C62.796 88.028 64.38 89.216 66.216 90.26C68.16 89.144 69.888 87.884 71.184 86.48H61.86L61.608 86.732ZM90.48 77.696H93.288V86.084H103.512V76.796H106.356V86.084H116.508V88.856H93.288V89.684C93.288 91.34 93.252 92.96 93.144 94.616H110.964V109.88H108.048V97.388H92.856C92.28 101.924 90.804 106.316 87.492 109.952C87.024 109.304 86.052 108.296 85.368 107.828C89.976 102.716 90.48 96.056 90.48 89.684V77.696ZM135.372 77.3H138.216V88.424H151.716V91.124H138.216V105.452H154.2V108.152H121.836V105.452H135.372V77.3ZM165.576 76.904L168.132 77.66C167.088 80.324 165.792 83.024 164.352 85.508V109.808H161.76V89.54C160.608 91.16 159.384 92.672 158.16 93.932C157.872 93.284 157.116 91.88 156.648 91.268C160.176 87.776 163.56 82.376 165.576 76.904ZM172.848 102.5L174.828 100.844C175.944 101.528 177.132 102.284 178.284 103.076C180.156 101.096 182.1 98.9 183.684 97.1H170.796C171.444 95.228 172.236 92.852 172.992 90.296H166.476V87.74H173.748L174.936 83.456H168.528V80.936H175.62L176.628 76.94L179.292 77.3L178.356 80.936H188.688V83.456H177.672L176.484 87.74H190.344V90.296H175.764L174.468 94.58H186.024L186.456 94.4L188.364 95.588C186.168 98.144 183.144 101.564 180.372 104.552C181.956 105.74 183.36 106.892 184.332 107.864L182.316 109.88C180.336 107.828 176.268 104.588 172.848 102.5Z" fill="#999999"/>
<path d="M69.0659 139L72.0659 130.216H73.1579L76.1699 139H75.1139L74.2379 136.24H70.9499L70.0619 139H69.0659ZM71.2139 135.448H73.9859L73.5299 134.02C73.1939 133.024 72.9179 132.076 72.6179 131.044H72.5699C72.2819 132.076 71.9939 133.024 71.6699 134.02L71.2139 135.448ZM76.3577 139L78.5057 135.616L76.5257 132.52H77.5937L78.4937 133.996C78.6977 134.356 78.9257 134.704 79.1537 135.076H79.2017C79.4057 134.704 79.5977 134.356 79.8017 133.996L80.6417 132.52H81.6617L79.6817 135.712L81.8297 139H80.7617L79.7657 137.428C79.5497 137.032 79.2977 136.636 79.0457 136.264H78.9857C78.7577 136.636 78.5417 137.032 78.3137 137.428L77.3897 139H76.3577ZM83.1417 139V129.448H84.1257V132.1L84.0897 133.456C84.7017 132.844 85.3737 132.352 86.2617 132.352C87.6177 132.352 88.2417 133.228 88.2417 134.884V139H87.2577V135.004C87.2577 133.756 86.8737 133.204 85.9737 133.204C85.2897 133.204 84.7977 133.564 84.1257 134.248V139H83.1417ZM92.2444 139.156C90.8884 139.156 90.2644 138.292 90.2644 136.636V132.52H91.2484V136.516C91.2484 137.764 91.6324 138.304 92.5324 138.304C93.2164 138.304 93.7084 137.956 94.3564 137.164V132.52H95.3284V139H94.5244L94.4404 137.968H94.4044C93.7924 138.676 93.1444 139.156 92.2444 139.156ZM100.363 139.156C99.7632 139.156 99.0672 138.844 98.5032 138.328H98.4552L98.3592 139H97.5792V129.448H98.5632V132.1L98.5152 133.288C99.1272 132.772 99.8592 132.352 100.603 132.352C102.295 132.352 103.183 133.66 103.183 135.652C103.183 137.872 101.851 139.156 100.363 139.156ZM100.219 138.328C101.347 138.328 102.175 137.308 102.175 135.676C102.175 134.188 101.671 133.18 100.375 133.18C99.8112 133.18 99.2112 133.504 98.5632 134.104V137.62C99.1512 138.148 99.7752 138.328 100.219 138.328ZM106.554 139L109.554 130.216H110.646L113.658 139H112.602L111.726 136.24H108.438L107.55 139H106.554ZM108.702 135.448H111.474L111.018 134.02C110.682 133.024 110.406 132.076 110.106 131.044H110.058C109.77 132.076 109.482 133.024 109.158 134.02L108.702 135.448ZM114.841 139V132.52H115.645L115.741 133.468H115.777C116.401 132.844 117.073 132.352 117.961 132.352C119.317 132.352 119.941 133.228 119.941 134.884V139H118.957V135.004C118.957 133.756 118.573 133.204 117.673 133.204C116.989 133.204 116.497 133.564 115.825 134.248V139H114.841ZM124.087 139.156C122.731 139.156 122.299 138.316 122.299 137.044V133.312H121.315V132.58L122.335 132.52L122.455 130.684H123.271V132.52H125.059V133.312H123.271V137.08C123.271 137.872 123.511 138.352 124.291 138.352C124.531 138.352 124.831 138.268 125.047 138.172L125.251 138.916C124.879 139.036 124.447 139.156 124.087 139.156ZM128.568 139.156C126.936 139.156 125.892 137.932 125.892 135.772C125.892 133.672 127.224 132.352 128.724 132.352C129.48 132.352 129.984 132.64 130.572 133.12L130.524 131.98V129.448H131.496V139H130.692L130.608 138.22H130.572C130.056 138.736 129.372 139.156 128.568 139.156ZM128.772 138.328C129.396 138.328 129.948 138.016 130.524 137.404V133.9C129.948 133.384 129.432 133.18 128.868 133.18C127.764 133.18 126.9 134.248 126.9 135.76C126.9 137.356 127.584 138.328 128.772 138.328ZM138.143 139L135.323 130.216H136.367L137.831 135.064C138.143 136.108 138.371 136.936 138.707 137.98H138.755C139.091 136.936 139.307 136.108 139.631 135.064L141.083 130.216H142.091L139.283 139H138.143ZM143.199 139V138.172H145.167V131.704H143.595V131.068C144.363 130.936 144.927 130.732 145.371 130.468H146.127V138.172H147.915V139H143.199ZM150.325 139.156C149.917 139.156 149.581 138.844 149.581 138.388C149.581 137.908 149.917 137.596 150.325 137.596C150.721 137.596 151.057 137.908 151.057 138.388C151.057 138.844 150.721 139.156 150.325 139.156ZM155.228 139.156C153.536 139.156 152.54 137.56 152.54 134.704C152.54 131.848 153.536 130.312 155.228 130.312C156.908 130.312 157.916 131.86 157.916 134.704C157.916 137.56 156.908 139.156 155.228 139.156ZM155.228 138.364C156.26 138.364 156.968 137.224 156.968 134.704C156.968 132.172 156.26 131.104 155.228 131.104C154.184 131.104 153.476 132.172 153.476 134.704C153.476 137.224 154.184 138.364 155.228 138.364ZM160.134 139.156C159.726 139.156 159.39 138.844 159.39 138.388C159.39 137.908 159.726 137.596 160.134 137.596C160.53 137.596 160.866 137.908 160.866 138.388C160.866 138.844 160.53 139.156 160.134 139.156ZM165.036 139.156C163.344 139.156 162.348 137.56 162.348 134.704C162.348 131.848 163.344 130.312 165.036 130.312C166.716 130.312 167.724 131.86 167.724 134.704C167.724 137.56 166.716 139.156 165.036 139.156ZM165.036 138.364C166.068 138.364 166.776 137.224 166.776 134.704C166.776 132.172 166.068 131.104 165.036 131.104C163.992 131.104 163.284 132.172 163.284 134.704C163.284 137.224 163.992 138.364 165.036 138.364ZM19.3614 154.024H20.1294V156.46C20.1294 157.96 19.7694 159.76 16.7094 160.876C16.6014 160.72 16.3974 160.444 16.2174 160.3C19.0854 159.352 19.3614 157.708 19.3614 156.46V154.024ZM19.9734 158.896L20.5134 158.404C21.2814 158.98 22.2654 159.82 22.7574 160.348L22.1934 160.912C21.7254 160.36 20.7534 159.508 19.9734 158.896ZM12.3654 152.644L12.8214 152.14L13.9134 152.872C14.4054 152.44 14.9214 151.828 15.3174 151.252H12.0054V150.532H15.8454L15.9894 150.496L16.4934 150.82C15.9654 151.696 15.1854 152.62 14.4654 153.256C14.9094 153.556 15.3174 153.856 15.5934 154.084L15.3654 154.372H16.2294L16.3614 154.336L16.8654 154.48C16.5414 155.404 16.1574 156.436 15.8214 157.084L15.1974 156.916C15.4374 156.448 15.6894 155.764 15.9174 155.104H14.5374V159.964C14.5374 160.42 14.4414 160.648 14.1174 160.78C13.7934 160.9 13.2774 160.912 12.4494 160.912C12.4134 160.696 12.2934 160.372 12.1854 160.144C12.8214 160.156 13.3734 160.156 13.5414 160.156C13.7214 160.144 13.7694 160.096 13.7694 159.952V155.104H11.7534V154.372H14.7534C14.0934 153.856 13.1334 153.16 12.3654 152.644ZM17.2974 152.488H19.1094C19.2294 152.104 19.3614 151.636 19.4574 151.216H16.8534V150.484H22.7574V151.216H20.3334L19.8894 152.488H22.2774V158.164H21.4974V153.22H18.0414V158.176H17.2974V152.488ZM30.9654 152.452L31.6494 152.14C32.3214 152.716 33.0294 153.52 33.3654 154.072L32.6454 154.432C32.3334 153.856 31.6134 153.04 30.9654 152.452ZM24.6894 150.604H25.4694V153.976H24.6894V150.604ZM27.1854 150.052H27.9774V154.36H27.1854V150.052ZM29.6334 157.792H30.4374V159.736C30.4374 160.024 30.5334 160.072 31.1094 160.072C31.3854 160.072 32.7894 160.072 33.1494 160.072C33.6294 160.072 33.7254 159.916 33.7614 158.8C33.9414 158.92 34.2654 159.04 34.4814 159.088C34.3854 160.444 34.1454 160.768 33.2214 160.768C32.9814 160.768 31.2894 160.768 31.0494 160.768C29.9214 160.768 29.6334 160.564 29.6334 159.736V157.792ZM28.8054 156.04H29.6454V156.988C29.6454 158.248 29.1534 159.88 24.5934 160.972C24.4974 160.78 24.2694 160.492 24.0894 160.324C28.5054 159.364 28.8054 157.96 28.8054 156.976V156.04ZM25.6734 154.744H33.0534V158.5H32.2254V155.476H26.4774V158.56H25.6734V154.744ZM30.3414 149.932L31.1094 150.088C31.0134 150.46 30.8934 150.832 30.7734 151.192H34.4694V151.924H30.4974C30.1734 152.704 29.8014 153.4 29.3934 153.94C29.2494 153.82 28.9134 153.616 28.7094 153.52C29.4414 152.632 30.0054 151.276 30.3414 149.932ZM38.4973 157.036V156.268H41.5333V157.036H38.4973ZM56.7023 155.404H54.3503C54.0623 156.052 53.7743 156.664 53.4983 157.192C54.1343 157.516 54.8183 157.876 55.4903 158.248C56.1023 157.516 56.4983 156.592 56.7023 155.404ZM52.4303 157.456C52.7663 156.904 53.1383 156.172 53.4863 155.404H51.6743V154.672H53.7983C54.0743 154 54.3143 153.328 54.4823 152.716L55.2983 152.848C55.1303 153.424 54.9023 154.048 54.6503 154.672H58.8983V155.404H57.5663C57.3023 156.76 56.8583 157.804 56.1863 158.632C57.2183 159.244 58.1783 159.844 58.8143 160.348L58.2383 160.972C57.6263 160.468 56.6783 159.844 55.6343 159.208C54.7583 160.012 53.6063 160.552 52.1183 160.948C52.0463 160.768 51.8543 160.42 51.7103 160.252C53.0783 159.94 54.1463 159.484 54.9383 158.8C54.0983 158.32 53.2223 157.84 52.4303 157.456ZM51.9983 151.504H55.0103C54.9023 151.048 54.7223 150.496 54.5543 150.052L55.3463 149.884C55.5503 150.388 55.7663 151.024 55.8863 151.504H58.7303V153.784H57.9503V152.224H52.7663V153.808H51.9983V151.504ZM49.5623 149.944H50.3543V152.38H51.6743V153.136H50.3543V155.968L51.8063 155.524L51.9263 156.244L50.3543 156.76V159.976C50.3543 160.444 50.2343 160.672 49.9343 160.792C49.6463 160.924 49.1663 160.948 48.3743 160.936C48.3623 160.744 48.2423 160.42 48.1343 160.204C48.6863 160.216 49.1903 160.216 49.3463 160.216C49.5023 160.216 49.5623 160.156 49.5623 159.988V157.012L47.9783 157.516L47.7863 156.736L49.5623 156.208V153.136H47.9183V152.38H49.5623V149.944ZM65.9783 150.16L66.7103 149.896C67.1303 150.508 67.5983 151.324 67.7783 151.852L67.0103 152.176C66.8303 151.636 66.3983 150.796 65.9783 150.16ZM62.8943 149.98L63.6623 150.22C63.3143 151.108 62.8943 151.984 62.4143 152.812V160.912H61.6103V154.072C61.2023 154.648 60.7703 155.176 60.3383 155.62C60.2663 155.428 60.0143 155.008 59.8583 154.816C61.0703 153.652 62.2103 151.828 62.8943 149.98ZM63.1463 159.748H66.6863V156.592H63.8663V155.824H66.6863V153.076H63.4583V152.308H70.7543V153.076H67.4903V155.824H70.3943V156.592H67.4903V159.748H70.9343V160.516H63.1463V159.748ZM74.1342 160L77.1342 151.216H78.2262L81.2382 160H80.1822L79.3062 157.24H76.0182L75.1302 160H74.1342ZM76.2822 156.448H79.0542L78.5982 155.02C78.2622 154.024 77.9862 153.076 77.6862 152.044H77.6382C77.3502 153.076 77.0622 154.024 76.7382 155.02L76.2822 156.448ZM83.489 160.156C82.745 160.156 82.421 159.676 82.421 158.812V150.448H83.405V158.884C83.405 159.208 83.537 159.34 83.705 159.34C83.753 159.34 83.801 159.34 83.933 159.316L84.077 160.072C83.921 160.12 83.765 160.156 83.489 160.156ZM87.7525 160.156C86.3965 160.156 85.9645 159.316 85.9645 158.044V154.312H84.9805V153.58L86.0005 153.52L86.1205 151.684H86.9365V153.52H88.7245V154.312H86.9365V158.08C86.9365 158.872 87.1765 159.352 87.9565 159.352C88.1965 159.352 88.4965 159.268 88.7125 159.172L88.9165 159.916C88.5445 160.036 88.1125 160.156 87.7525 160.156ZM100.038 150.484L100.506 149.992C101.262 150.316 102.174 150.844 102.63 151.252L102.138 151.828C101.694 151.408 100.794 150.844 100.038 150.484ZM92.5258 159.256C93.8338 159.016 95.8738 158.596 97.8298 158.176L97.8898 158.944C96.0418 159.352 94.0738 159.784 92.6938 160.084L92.5258 159.256ZM94.0618 154.504V156.724H96.6298V154.504H94.0618ZM93.3058 153.796H97.4218V157.42H93.3058V153.796ZM92.5978 151.888H98.4898C98.4538 151.264 98.4418 150.616 98.4298 149.968H99.2818C99.2818 150.628 99.2938 151.264 99.3298 151.888H102.966V152.68H99.3658C99.4858 154.348 99.7138 155.848 100.026 157.048C100.722 156.04 101.274 154.888 101.67 153.592L102.474 153.784C101.946 155.404 101.214 156.82 100.314 158.008C100.77 159.328 101.346 160.108 101.994 160.108C102.354 160.108 102.498 159.484 102.57 157.864C102.75 158.044 103.05 158.236 103.278 158.308C103.134 160.336 102.81 160.948 101.934 160.948C100.986 160.948 100.242 160.12 99.6898 158.752C98.9218 159.616 98.0338 160.336 97.0258 160.924C96.9058 160.768 96.5938 160.444 96.4138 160.3C97.5658 159.688 98.5618 158.872 99.3898 157.888C98.9578 156.472 98.6818 154.66 98.5378 152.68H92.5978V151.888ZM110.858 160.156C108.674 160.156 107.138 158.38 107.138 155.572C107.138 152.776 108.674 151.06 110.858 151.06C113.03 151.06 114.566 152.776 114.566 155.572C114.566 158.38 113.03 160.156 110.858 160.156ZM110.858 159.28C112.478 159.28 113.546 157.828 113.546 155.572C113.546 153.328 112.478 151.936 110.858 151.936C109.226 151.936 108.158 153.328 108.158 155.572C108.158 157.828 109.226 159.28 110.858 159.28ZM116.405 162.772V153.52H117.209L117.305 154.276H117.341C117.941 153.796 118.661 153.352 119.429 153.352C121.121 153.352 122.009 154.66 122.009 156.664C122.009 158.872 120.677 160.156 119.189 160.156C118.589 160.156 117.965 159.88 117.365 159.4L117.389 160.54V162.772H116.405ZM119.045 159.328C120.173 159.328 121.001 158.308 121.001 156.676C121.001 155.188 120.497 154.18 119.201 154.18C118.637 154.18 118.049 154.504 117.389 155.104V158.62C118.001 159.148 118.601 159.328 119.045 159.328ZM125.557 160.156C124.201 160.156 123.769 159.316 123.769 158.044V154.312H122.785V153.58L123.805 153.52L123.925 151.684H124.741V153.52H126.529V154.312H124.741V158.08C124.741 158.872 124.981 159.352 125.761 159.352C126.001 159.352 126.301 159.268 126.517 159.172L126.721 159.916C126.349 160.036 125.917 160.156 125.557 160.156ZM128.019 160V153.52H129.003V160H128.019ZM128.523 152.128C128.115 152.128 127.851 151.864 127.851 151.444C127.851 151.048 128.115 150.784 128.523 150.784C128.907 150.784 129.195 151.048 129.195 151.444C129.195 151.864 128.907 152.128 128.523 152.128ZM133.725 160.156C132.141 160.156 130.749 158.908 130.749 156.772C130.749 154.6 132.141 153.352 133.725 153.352C135.309 153.352 136.701 154.6 136.701 156.772C136.701 158.908 135.309 160.156 133.725 160.156ZM133.725 159.34C134.901 159.34 135.705 158.308 135.705 156.772C135.705 155.224 134.901 154.18 133.725 154.18C132.561 154.18 131.757 155.224 131.757 156.772C131.757 158.308 132.561 159.34 133.725 159.34ZM138.46 160V153.52H139.264L139.36 154.468H139.396C140.02 153.844 140.692 153.352 141.58 153.352C142.936 153.352 143.56 154.228 143.56 155.884V160H142.576V156.004C142.576 154.756 142.192 154.204 141.292 154.204C140.608 154.204 140.116 154.564 139.444 155.248V160H138.46ZM149.862 154.72V156.1H152.826V154.72H149.862ZM153.654 154.72V156.1H156.762V154.72H153.654ZM149.862 152.716V154.072H152.826V152.716H149.862ZM153.654 152.716V154.072H156.762V152.716H153.654ZM155.838 149.992L156.702 150.28C156.33 150.856 155.898 151.504 155.502 152.02H157.578V156.796H153.654V157.996H158.646V158.752H153.654V160.924H152.826V158.752H147.93V157.996H152.826V156.796H149.07V152.02H151.35C151.074 151.54 150.594 150.82 150.138 150.316L150.822 149.992C151.314 150.532 151.878 151.276 152.118 151.78L151.65 152.02H154.614C155.046 151.432 155.55 150.592 155.838 149.992ZM161.082 156.376H161.922V159.448H164.874V155.416H160.086V154.612H164.874V152.632H160.986V151.84H164.874V149.944H165.714V151.84H169.65V152.632H165.714V154.612H170.49V155.416H165.714V159.448H168.642V156.376H169.446V160.948H168.642V160.24H161.082V156.376ZM173.034 150.892H181.554V151.66H173.034V150.892ZM172.002 154.276H182.562V155.056H179.13V159.46C179.13 159.88 179.226 159.952 179.706 159.952C179.934 159.952 181.05 159.952 181.35 159.952C181.866 159.952 181.938 159.64 181.986 157.768C182.178 157.924 182.514 158.068 182.742 158.128C182.646 160.168 182.43 160.72 181.41 160.72C181.17 160.72 179.85 160.72 179.622 160.72C178.59 160.72 178.314 160.444 178.314 159.472V155.056H175.962C175.746 157.66 175.17 159.808 172.386 160.912C172.302 160.72 172.062 160.432 171.882 160.288C174.45 159.316 174.918 157.36 175.11 155.056H172.002V154.276ZM187.074 155.956H190.554V153.208H188.574C188.322 153.928 188.022 154.564 187.686 155.08C187.53 154.972 187.194 154.768 187.002 154.684C187.698 153.664 188.202 152.116 188.478 150.532L189.258 150.688C189.138 151.276 188.994 151.864 188.838 152.416H190.554V150.088H191.358V152.416H194.154V153.208H191.358V155.956H194.67V156.748H191.358V160.936H190.554V156.748H187.074V155.956ZM186.534 149.98L187.302 150.22C186.966 151.108 186.558 152.008 186.09 152.848V160.912H185.322V154.096C184.95 154.66 184.554 155.164 184.146 155.608C184.074 155.416 183.834 155.008 183.678 154.816C184.818 153.64 185.886 151.816 186.534 149.98ZM198.493 157.036V156.268H201.529V157.036H198.493ZM205.231 159.388C206.119 159.088 207.427 158.584 208.735 158.092L208.879 158.752C207.667 159.244 206.407 159.736 205.435 160.132L205.231 159.388ZM205.459 154.912C205.423 154.744 205.303 154.36 205.207 154.156C205.411 154.108 205.603 153.82 205.855 153.4C206.107 152.992 206.923 151.408 207.367 149.944L208.147 150.22C207.631 151.552 206.959 152.944 206.275 154L207.691 153.844C207.943 153.4 208.195 152.932 208.399 152.464L209.071 152.836C208.363 154.192 207.511 155.584 206.635 156.7L208.735 156.256C208.723 156.472 208.759 156.76 208.783 156.916C206.119 157.54 205.759 157.648 205.543 157.792C205.507 157.624 205.387 157.264 205.291 157.06C205.531 157.024 205.795 156.7 206.143 156.256C206.335 156.004 206.791 155.368 207.271 154.576C205.903 154.756 205.627 154.828 205.459 154.912ZM212.203 155.752H211.135V157.612H212.203V155.752ZM212.767 155.752V157.612H213.691V155.752H212.767ZM210.487 155.08H215.215L215.863 155.068V160.132C215.863 160.444 215.815 160.624 215.611 160.732C215.395 160.84 215.119 160.852 214.687 160.852C214.663 160.672 214.579 160.408 214.495 160.24C214.771 160.252 215.011 160.252 215.095 160.252C215.179 160.24 215.215 160.216 215.215 160.12V158.26H214.255V160.528H213.691V158.26H212.767V160.54H212.203V158.26H211.135V160.84H210.487V155.08ZM214.255 155.752V157.612H215.215V155.752H214.255ZM212.023 150.088L212.767 149.872C213.031 150.292 213.295 150.856 213.415 151.252H215.755V153.988H210.463C210.451 155.932 210.259 158.764 209.155 160.732C209.023 160.588 208.699 160.36 208.531 160.276C209.611 158.344 209.719 155.692 209.719 153.856V151.252H212.563C212.431 150.88 212.215 150.448 212.023 150.088ZM210.463 151.936V153.316H214.999V151.936H210.463ZM223.291 150.952V152.248H226.627V150.952H223.291ZM222.547 150.328H227.407V152.872H222.547V150.328ZM217.711 155.98C217.675 155.812 217.555 155.452 217.471 155.248C217.663 155.2 217.819 154.804 218.023 154.276C218.143 153.976 218.419 153.148 218.671 152.152H217.315V151.384H218.851C218.959 150.916 219.043 150.424 219.115 149.944L219.907 150.112C219.823 150.532 219.739 150.964 219.631 151.384H221.671V152.152H219.427C219.139 153.208 218.803 154.216 218.455 155.068H219.691V153.208H220.435V155.068H221.599V155.812H220.435V157.468L221.815 157.204L221.863 157.912L220.435 158.212V160.888H219.691V158.356L217.411 158.824L217.231 158.032C217.891 157.924 218.755 157.78 219.691 157.6V155.812H218.575C218.167 155.812 217.819 155.884 217.711 155.98ZM226.591 154.3H223.411V155.392H226.591V154.3ZM221.527 159.136L222.655 159.064V154.3H221.827V153.604H228.163V154.3H227.335V158.728L228.235 158.668L228.223 159.352L227.335 159.424V160.936H226.591V159.484L221.659 159.868L221.527 159.136ZM226.591 156.016H223.411V157.132H226.591V156.016ZM226.591 157.756H223.411V159.016L226.591 158.788V157.756Z" fill="#999999"/>
</svg>
