<svg width="300" height="300" viewBox="0 0 300 300" fill="none" xmlns="http://www.w3.org/2000/svg">
<g clip-path="url(#clip0_208_2)">
<path d="M55.9931 142V112.68H59.6731V138.84H72.5131V142H55.9931ZM85.2841 142.52C79.9641 142.52 75.2441 138.36 75.2441 131.16C75.2441 123.92 79.9641 119.72 85.2841 119.72C90.6041 119.72 95.3241 123.92 95.3241 131.16C95.3241 138.36 90.6041 142.52 85.2841 142.52ZM85.2841 139.48C89.0441 139.48 91.6041 136.16 91.6041 131.16C91.6041 126.16 89.0441 122.8 85.2841 122.8C81.5241 122.8 79.0041 126.16 79.0041 131.16C79.0041 136.16 81.5241 139.48 85.2841 139.48ZM107.16 142.52C102.56 142.52 101 139.64 101 135.28V123.24H97.7597V120.48L101.2 120.28L101.6 114.16H104.64V120.28H110.56V123.24H104.64V135.4C104.64 138.04 105.48 139.56 108 139.56C108.8 139.56 109.76 139.28 110.48 138.96L111.2 141.72C109.96 142.12 108.52 142.52 107.16 142.52ZM121.339 142.52C116.739 142.52 115.179 139.64 115.179 135.28V123.24H111.939V120.48L115.379 120.28L115.779 114.16H118.819V120.28H124.739V123.24H118.819V135.4C118.819 138.04 119.659 139.56 122.179 139.56C122.979 139.56 123.939 139.28 124.659 138.96L125.379 141.72C124.139 142.12 122.699 142.52 121.339 142.52ZM129.618 142V120.28H133.298V142H129.618ZM131.458 115.8C130.018 115.8 129.058 114.84 129.058 113.36C129.058 111.96 130.018 111 131.458 111C132.898 111 133.898 111.96 133.898 113.36C133.898 114.84 132.898 115.8 131.458 115.8ZM149.433 142.52C143.633 142.52 139.033 138.32 139.033 131.16C139.033 124.08 143.793 119.72 148.753 119.72C154.313 119.72 157.433 123.72 157.433 129.92C157.433 130.72 157.353 131.44 157.273 132H142.633C142.873 136.64 145.713 139.6 149.833 139.6C151.953 139.6 153.633 138.96 155.273 137.88L156.553 140.32C154.673 141.56 152.353 142.52 149.433 142.52ZM142.593 129.4H154.233C154.233 125 152.233 122.64 148.833 122.64C145.753 122.64 143.033 125.08 142.593 129.4ZM171.607 111.68H187.087V114.36H171.607V111.68ZM194.167 109.08H197.127C197.127 111.92 197.087 114.8 197.007 117.64H205.847C205.847 117.64 205.847 118.72 205.847 119.16C205.287 135.64 204.807 141.32 203.407 143.08C202.607 144.12 201.807 144.48 200.527 144.6C199.287 144.72 197.087 144.72 194.967 144.56C194.887 143.72 194.567 142.48 194.047 141.6C196.287 141.84 198.407 141.84 199.247 141.84C199.967 141.84 200.407 141.72 200.807 141.24C201.887 140.04 202.407 134.72 202.847 120.52H196.887C196.327 130.44 194.607 139.56 188.727 145.16C188.207 144.44 187.167 143.44 186.367 143C191.847 138 193.447 129.64 193.927 120.52H188.327V117.64H194.047C194.167 114.8 194.167 111.92 194.167 109.08ZM171.607 140.24C171.447 139.64 171.007 138.2 170.647 137.48C171.287 137.28 171.807 136.2 172.487 134.68C173.047 133.36 174.727 128.64 175.767 123.96H170.207V121.2H187.807V123.96H178.847C177.847 128.16 176.327 132.64 174.767 136.24L184.287 134.24C183.567 132.16 182.767 129.96 181.967 128.08L184.447 127.4C185.967 131 187.767 135.76 188.527 138.56L185.887 139.44L185.127 136.76C174.007 139.28 172.567 139.72 171.647 140.28V140.2L171.607 140.24ZM211.727 111H244.447V113.84H211.727V111ZM218.327 118.32H237.607V136.32H218.327V118.32ZM220.887 128.48V133.76H226.567V128.48H220.887ZM229.247 128.48V133.76H234.967V128.48H229.247ZM220.887 120.84V126.08H226.567V120.84H220.887ZM229.247 120.84V126.08H234.967V120.84H229.247ZM211.647 120.96H214.727V140.36H241.487V120.68H244.487V145.04H241.487V143.16H211.647V120.96Z" fill="#999999"/>
<path d="M73.8903 172L77.3903 161.752H78.6643L82.1783 172H80.9463L79.9243 168.78H76.0883L75.0523 172H73.8903ZM76.3963 167.856H79.6303L79.0983 166.19C78.7063 165.028 78.3843 163.922 78.0343 162.718H77.9783C77.6423 163.922 77.3063 165.028 76.9283 166.19L76.3963 167.856ZM82.3975 172L84.9035 168.052L82.5935 164.44H83.8395L84.8895 166.162C85.1275 166.582 85.3935 166.988 85.6595 167.422H85.7155C85.9535 166.988 86.1775 166.582 86.4155 166.162L87.3955 164.44H88.5855L86.2755 168.164L88.7815 172H87.5355L86.3735 170.166C86.1215 169.704 85.8275 169.242 85.5335 168.808H85.4635C85.1975 169.242 84.9455 169.704 84.6795 170.166L83.6015 172H82.3975ZM90.3121 172V160.856H91.4601V163.95L91.4181 165.532C92.1321 164.818 92.9161 164.244 93.9521 164.244C95.5341 164.244 96.2621 165.266 96.2621 167.198V172H95.1141V167.338C95.1141 165.882 94.6661 165.238 93.6161 165.238C92.8181 165.238 92.2441 165.658 91.4601 166.456V172H90.3121ZM100.932 172.182C99.35 172.182 98.622 171.174 98.622 169.242V164.44H99.77V169.102C99.77 170.558 100.218 171.188 101.268 171.188C102.066 171.188 102.64 170.782 103.396 169.858V164.44H104.53V172H103.592L103.494 170.796H103.452C102.738 171.622 101.982 172.182 100.932 172.182ZM110.404 172.182C109.704 172.182 108.892 171.818 108.234 171.216H108.178L108.066 172H107.156V160.856H108.304V163.95L108.248 165.336C108.962 164.734 109.816 164.244 110.684 164.244C112.658 164.244 113.694 165.77 113.694 168.094C113.694 170.684 112.14 172.182 110.404 172.182ZM110.236 171.216C111.552 171.216 112.518 170.026 112.518 168.122C112.518 166.386 111.93 165.21 110.418 165.21C109.76 165.21 109.06 165.588 108.304 166.288V170.39C108.99 171.006 109.718 171.216 110.236 171.216ZM117.627 172L121.127 161.752H122.401L125.915 172H124.683L123.661 168.78H119.825L118.789 172H117.627ZM120.133 167.856H123.367L122.835 166.19C122.443 165.028 122.121 163.922 121.771 162.718H121.715C121.379 163.922 121.043 165.028 120.665 166.19L120.133 167.856ZM127.295 172V164.44H128.233L128.345 165.546H128.387C129.115 164.818 129.899 164.244 130.935 164.244C132.517 164.244 133.245 165.266 133.245 167.198V172H132.097V167.338C132.097 165.882 131.649 165.238 130.599 165.238C129.801 165.238 129.227 165.658 128.443 166.456V172H127.295ZM135.771 172V164.44H136.919V172H135.771ZM136.359 162.816C135.883 162.816 135.575 162.508 135.575 162.018C135.575 161.556 135.883 161.248 136.359 161.248C136.807 161.248 137.143 161.556 137.143 162.018C137.143 162.508 136.807 162.816 136.359 162.816ZM139.531 172V164.44H140.469L140.581 165.56H140.623C141.281 164.818 142.093 164.244 142.989 164.244C144.151 164.244 144.767 164.818 145.061 165.714C145.873 164.846 146.671 164.244 147.581 164.244C149.121 164.244 149.863 165.266 149.863 167.198V172H148.743V167.338C148.743 165.882 148.267 165.238 147.259 165.238C146.643 165.238 146.013 165.644 145.271 166.456V172H144.137V167.338C144.137 165.882 143.675 165.238 142.667 165.238C142.065 165.238 141.393 165.644 140.679 166.456V172H139.531ZM154.132 172.182C152.886 172.182 151.934 171.426 151.934 170.054C151.934 168.402 153.376 167.59 156.624 167.226C156.638 166.204 156.316 165.196 155.014 165.196C154.104 165.196 153.292 165.63 152.718 166.036L152.27 165.224C152.914 164.804 153.978 164.244 155.196 164.244C157.03 164.244 157.758 165.49 157.758 167.31V172H156.834L156.722 171.076H156.68C155.952 171.692 155.084 172.182 154.132 172.182ZM154.44 171.258C155.196 171.258 155.854 170.894 156.624 170.208V167.996C153.95 168.304 153.04 168.948 153.04 169.984C153.04 170.894 153.67 171.258 154.44 171.258ZM162.321 172.182C160.739 172.182 160.235 171.202 160.235 169.718V165.364H159.087V164.51L160.277 164.44L160.417 162.298H161.369V164.44H163.455V165.364H161.369V169.76C161.369 170.684 161.649 171.244 162.559 171.244C162.839 171.244 163.189 171.146 163.441 171.034L163.679 171.902C163.245 172.042 162.741 172.182 162.321 172.182ZM165.193 172V164.44H166.341V172H165.193ZM165.781 162.816C165.305 162.816 164.997 162.508 164.997 162.018C164.997 161.556 165.305 161.248 165.781 161.248C166.229 161.248 166.565 161.556 166.565 162.018C166.565 162.508 166.229 162.816 165.781 162.816ZM171.851 172.182C170.003 172.182 168.379 170.726 168.379 168.234C168.379 165.7 170.003 164.244 171.851 164.244C173.699 164.244 175.323 165.7 175.323 168.234C175.323 170.726 173.699 172.182 171.851 172.182ZM171.851 171.23C173.223 171.23 174.161 170.026 174.161 168.234C174.161 166.428 173.223 165.21 171.851 165.21C170.493 165.21 169.555 166.428 169.555 168.234C169.555 170.026 170.493 171.23 171.851 171.23ZM177.375 172V164.44H178.313L178.425 165.546H178.467C179.195 164.818 179.979 164.244 181.015 164.244C182.597 164.244 183.325 165.266 183.325 167.198V172H182.177V167.338C182.177 165.882 181.729 165.238 180.679 165.238C179.881 165.238 179.307 165.658 178.523 166.456V172H177.375ZM190.97 172L187.68 161.752H188.898L190.606 167.408C190.97 168.626 191.236 169.592 191.628 170.81H191.684C192.076 169.592 192.328 168.626 192.706 167.408L194.4 161.752H195.576L192.3 172H190.97ZM196.869 172V171.034H199.165V163.488H197.331V162.746C198.227 162.592 198.885 162.354 199.403 162.046H200.285V171.034H202.371V172H196.869ZM205.183 172.182C204.707 172.182 204.315 171.818 204.315 171.286C204.315 170.726 204.707 170.362 205.183 170.362C205.645 170.362 206.037 170.726 206.037 171.286C206.037 171.818 205.645 172.182 205.183 172.182ZM208.313 172V171.034H210.609V163.488H208.775V162.746C209.671 162.592 210.329 162.354 210.847 162.046H211.729V171.034H213.815V172H208.313ZM216.626 172.182C216.15 172.182 215.758 171.818 215.758 171.286C215.758 170.726 216.15 170.362 216.626 170.362C217.088 170.362 217.48 170.726 217.48 171.286C217.48 171.818 217.088 172.182 216.626 172.182ZM222.346 172.182C220.372 172.182 219.21 170.32 219.21 166.988C219.21 163.656 220.372 161.864 222.346 161.864C224.306 161.864 225.482 163.67 225.482 166.988C225.482 170.32 224.306 172.182 222.346 172.182ZM222.346 171.258C223.55 171.258 224.376 169.928 224.376 166.988C224.376 164.034 223.55 162.788 222.346 162.788C221.128 162.788 220.302 164.034 220.302 166.988C220.302 169.928 221.128 171.258 222.346 171.258ZM32.5883 186.028H33.4843V188.87C33.4843 190.62 33.0643 192.72 29.4943 194.022C29.3683 193.84 29.1303 193.518 28.9203 193.35C32.2663 192.244 32.5883 190.326 32.5883 188.87V186.028ZM33.3023 191.712L33.9323 191.138C34.8283 191.81 35.9763 192.79 36.5503 193.406L35.8923 194.064C35.3463 193.42 34.2123 192.426 33.3023 191.712ZM24.4263 184.418L24.9583 183.83L26.2323 184.684C26.8063 184.18 27.4083 183.466 27.8703 182.794H24.0063V181.954H28.4863L28.6543 181.912L29.2423 182.29C28.6263 183.312 27.7163 184.39 26.8763 185.132C27.3943 185.482 27.8703 185.832 28.1923 186.098L27.9263 186.434H28.9343L29.0883 186.392L29.6763 186.56C29.2983 187.638 28.8503 188.842 28.4583 189.598L27.7303 189.402C28.0103 188.856 28.3043 188.058 28.5703 187.288H26.9603V192.958C26.9603 193.49 26.8483 193.756 26.4703 193.91C26.0923 194.05 25.4903 194.064 24.5243 194.064C24.4823 193.812 24.3423 193.434 24.2163 193.168C24.9583 193.182 25.6023 193.182 25.7983 193.182C26.0083 193.168 26.0643 193.112 26.0643 192.944V187.288H23.7123V186.434H27.2123C26.4423 185.832 25.3223 185.02 24.4263 184.418ZM30.1803 184.236H32.2943C32.4343 183.788 32.5883 183.242 32.7003 182.752H29.6623V181.898H36.5503V182.752H33.7223L33.2043 184.236H35.9903V190.858H35.0803V185.09H31.0483V190.872H30.1803V184.236ZM46.1263 184.194L46.9243 183.83C47.7083 184.502 48.5343 185.44 48.9263 186.084L48.0863 186.504C47.7223 185.832 46.8823 184.88 46.1263 184.194ZM38.8043 182.038H39.7143V185.972H38.8043V182.038ZM41.7163 181.394H42.6403V186.42H41.7163V181.394ZM44.5723 190.424H45.5103V192.692C45.5103 193.028 45.6223 193.084 46.2943 193.084C46.6163 193.084 48.2543 193.084 48.6743 193.084C49.2343 193.084 49.3463 192.902 49.3883 191.6C49.5983 191.74 49.9763 191.88 50.2283 191.936C50.1163 193.518 49.8363 193.896 48.7583 193.896C48.4783 193.896 46.5043 193.896 46.2243 193.896C44.9083 193.896 44.5723 193.658 44.5723 192.692V190.424ZM43.6063 188.38H44.5863V189.486C44.5863 190.956 44.0123 192.86 38.6923 194.134C38.5803 193.91 38.3143 193.574 38.1043 193.378C43.2563 192.258 43.6063 190.62 43.6063 189.472V188.38ZM39.9523 186.868H48.5623V191.25H47.5963V187.722H40.8903V191.32H39.9523V186.868ZM45.3983 181.254L46.2943 181.436C46.1823 181.87 46.0423 182.304 45.9023 182.724H50.2143V183.578H45.5803C45.2023 184.488 44.7683 185.3 44.2923 185.93C44.1243 185.79 43.7323 185.552 43.4943 185.44C44.3483 184.404 45.0063 182.822 45.3983 181.254ZM54.9135 189.542V188.646H58.4555V189.542H54.9135ZM76.1527 187.638H73.4087C73.0727 188.394 72.7367 189.108 72.4147 189.724C73.1567 190.102 73.9547 190.522 74.7387 190.956C75.4527 190.102 75.9147 189.024 76.1527 187.638ZM71.1687 190.032C71.5607 189.388 71.9947 188.534 72.4007 187.638H70.2867V186.784H72.7647C73.0867 186 73.3667 185.216 73.5627 184.502L74.5147 184.656C74.3187 185.328 74.0527 186.056 73.7587 186.784H78.7147V187.638H77.1607C76.8527 189.22 76.3347 190.438 75.5507 191.404C76.7547 192.118 77.8747 192.818 78.6167 193.406L77.9447 194.134C77.2307 193.546 76.1247 192.818 74.9067 192.076C73.8847 193.014 72.5407 193.644 70.8047 194.106C70.7207 193.896 70.4967 193.49 70.3287 193.294C71.9247 192.93 73.1707 192.398 74.0947 191.6C73.1147 191.04 72.0927 190.48 71.1687 190.032ZM70.6647 183.088H74.1787C74.0527 182.556 73.8427 181.912 73.6467 181.394L74.5707 181.198C74.8087 181.786 75.0607 182.528 75.2007 183.088H78.5187V185.748H77.6087V183.928H71.5607V185.776H70.6647V183.088ZM67.8227 181.268H68.7467V184.11H70.2867V184.992H68.7467V188.296L70.4407 187.778L70.5807 188.618L68.7467 189.22V192.972C68.7467 193.518 68.6067 193.784 68.2567 193.924C67.9207 194.078 67.3607 194.106 66.4367 194.092C66.4227 193.868 66.2827 193.49 66.1567 193.238C66.8007 193.252 67.3887 193.252 67.5707 193.252C67.7527 193.252 67.8227 193.182 67.8227 192.986V189.514L65.9747 190.102L65.7507 189.192L67.8227 188.576V184.992H65.9047V184.11H67.8227V181.268ZM86.9747 181.52L87.8287 181.212C88.3187 181.926 88.8647 182.878 89.0747 183.494L88.1787 183.872C87.9687 183.242 87.4647 182.262 86.9747 181.52ZM83.3767 181.31L84.2727 181.59C83.8667 182.626 83.3767 183.648 82.8167 184.614V194.064H81.8787V186.084C81.4027 186.756 80.8987 187.372 80.3947 187.89C80.3107 187.666 80.0167 187.176 79.8347 186.952C81.2487 185.594 82.5787 183.466 83.3767 181.31ZM83.6707 192.706H87.8007V189.024H84.5107V188.128H87.8007V184.922H84.0347V184.026H92.5467V184.922H88.7387V188.128H92.1267V189.024H88.7387V192.706H92.7567V193.602H83.6707V192.706ZM96.4899 193L99.9899 182.752H101.264L104.778 193H103.546L102.524 189.78H98.6879L97.6519 193H96.4899ZM98.9959 188.856H102.23L101.698 187.19C101.306 186.028 100.984 184.922 100.634 183.718H100.578C100.242 184.922 99.9059 186.028 99.5279 187.19L98.9959 188.856ZM107.404 193.182C106.536 193.182 106.158 192.622 106.158 191.614V181.856H107.306V191.698C107.306 192.076 107.46 192.23 107.656 192.23C107.712 192.23 107.768 192.23 107.922 192.202L108.09 193.084C107.908 193.14 107.726 193.182 107.404 193.182ZM112.378 193.182C110.796 193.182 110.292 192.202 110.292 190.718V186.364H109.144V185.51L110.334 185.44L110.474 183.298H111.426V185.44H113.512V186.364H111.426V190.76C111.426 191.684 111.706 192.244 112.616 192.244C112.896 192.244 113.246 192.146 113.498 192.034L113.736 192.902C113.302 193.042 112.798 193.182 112.378 193.182ZM126.711 181.898L127.257 181.324C128.139 181.702 129.203 182.318 129.735 182.794L129.161 183.466C128.643 182.976 127.593 182.318 126.711 181.898ZM117.947 192.132C119.473 191.852 121.853 191.362 124.135 190.872L124.205 191.768C122.049 192.244 119.753 192.748 118.143 193.098L117.947 192.132ZM119.739 186.588V189.178H122.735V186.588H119.739ZM118.857 185.762H123.659V189.99H118.857V185.762ZM118.031 183.536H124.905C124.863 182.808 124.849 182.052 124.835 181.296H125.829C125.829 182.066 125.843 182.808 125.885 183.536H130.127V184.46H125.927C126.067 186.406 126.333 188.156 126.697 189.556C127.509 188.38 128.153 187.036 128.615 185.524L129.553 185.748C128.937 187.638 128.083 189.29 127.033 190.676C127.565 192.216 128.237 193.126 128.993 193.126C129.413 193.126 129.581 192.398 129.665 190.508C129.875 190.718 130.225 190.942 130.491 191.026C130.323 193.392 129.945 194.106 128.923 194.106C127.817 194.106 126.949 193.14 126.305 191.544C125.409 192.552 124.373 193.392 123.197 194.078C123.057 193.896 122.693 193.518 122.483 193.35C123.827 192.636 124.989 191.684 125.955 190.536C125.451 188.884 125.129 186.77 124.961 184.46H118.031V183.536ZM139.334 193.182C136.786 193.182 134.994 191.11 134.994 187.834C134.994 184.572 136.786 182.57 139.334 182.57C141.868 182.57 143.66 184.572 143.66 187.834C143.66 191.11 141.868 193.182 139.334 193.182ZM139.334 192.16C141.224 192.16 142.47 190.466 142.47 187.834C142.47 185.216 141.224 183.592 139.334 183.592C137.43 183.592 136.184 185.216 136.184 187.834C136.184 190.466 137.43 192.16 139.334 192.16ZM145.806 196.234V185.44H146.744L146.856 186.322H146.898C147.598 185.762 148.438 185.244 149.334 185.244C151.308 185.244 152.344 186.77 152.344 189.108C152.344 191.684 150.79 193.182 149.054 193.182C148.354 193.182 147.626 192.86 146.926 192.3L146.954 193.63V196.234H145.806ZM148.886 192.216C150.202 192.216 151.168 191.026 151.168 189.122C151.168 187.386 150.58 186.21 149.068 186.21C148.41 186.21 147.724 186.588 146.954 187.288V191.39C147.668 192.006 148.368 192.216 148.886 192.216ZM156.483 193.182C154.901 193.182 154.397 192.202 154.397 190.718V186.364H153.249V185.51L154.439 185.44L154.579 183.298H155.531V185.44H157.617V186.364H155.531V190.76C155.531 191.684 155.811 192.244 156.721 192.244C157.001 192.244 157.351 192.146 157.603 192.034L157.841 192.902C157.407 193.042 156.903 193.182 156.483 193.182ZM159.355 193V185.44H160.503V193H159.355ZM159.943 183.816C159.467 183.816 159.159 183.508 159.159 183.018C159.159 182.556 159.467 182.248 159.943 182.248C160.391 182.248 160.727 182.556 160.727 183.018C160.727 183.508 160.391 183.816 159.943 183.816ZM166.013 193.182C164.165 193.182 162.541 191.726 162.541 189.234C162.541 186.7 164.165 185.244 166.013 185.244C167.861 185.244 169.485 186.7 169.485 189.234C169.485 191.726 167.861 193.182 166.013 193.182ZM166.013 192.23C167.385 192.23 168.323 191.026 168.323 189.234C168.323 187.428 167.385 186.21 166.013 186.21C164.655 186.21 163.717 187.428 163.717 189.234C163.717 191.026 164.655 192.23 166.013 192.23ZM171.537 193V185.44H172.475L172.587 186.546H172.629C173.357 185.818 174.141 185.244 175.177 185.244C176.759 185.244 177.487 186.266 177.487 188.198V193H176.339V188.338C176.339 186.882 175.891 186.238 174.841 186.238C174.043 186.238 173.469 186.658 172.685 187.456V193H171.537ZM184.838 186.84V188.45H188.296V186.84H184.838ZM189.262 186.84V188.45H192.888V186.84H189.262ZM184.838 184.502V186.084H188.296V184.502H184.838ZM189.262 184.502V186.084H192.888V184.502H189.262ZM191.81 181.324L192.818 181.66C192.384 182.332 191.88 183.088 191.418 183.69H193.84V189.262H189.262V190.662H195.086V191.544H189.262V194.078H188.296V191.544H182.584V190.662H188.296V189.262H183.914V183.69H186.574C186.252 183.13 185.692 182.29 185.16 181.702L185.958 181.324C186.532 181.954 187.19 182.822 187.47 183.41L186.924 183.69H190.382C190.886 183.004 191.474 182.024 191.81 181.324ZM197.928 188.772H198.908V192.356H202.352V187.652H196.766V186.714H202.352V184.404H197.816V183.48H202.352V181.268H203.332V183.48H207.924V184.404H203.332V186.714H208.904V187.652H203.332V192.356H206.748V188.772H207.686V194.106H206.748V193.28H197.928V188.772ZM215.106 189.066L215.512 188.478C216.618 188.702 218.032 189.164 218.802 189.528L218.41 190.172C217.64 189.794 216.226 189.304 215.106 189.066ZM213.692 190.844L214.126 190.186C216.016 190.41 218.438 190.956 219.796 191.404L219.376 192.118C218.046 191.642 215.624 191.082 213.692 190.844ZM211.018 181.898H222.624V194.092H221.672V193.49H211.928V194.092H211.018V181.898ZM211.928 192.65H221.672V182.752H211.928V192.65ZM215.638 183.088L216.422 183.368C216.24 183.648 216.044 183.928 215.82 184.208H219.544L219.698 184.166L220.23 184.488C219.642 185.44 218.746 186.252 217.696 186.938C218.802 187.47 220.076 187.862 221.336 188.1C221.168 188.268 220.93 188.576 220.818 188.814C219.474 188.52 218.116 188.03 216.94 187.386C215.596 188.114 214.084 188.646 212.698 188.968C212.614 188.744 212.418 188.38 212.25 188.198C213.524 187.946 214.91 187.512 216.142 186.91C215.526 186.518 214.98 186.07 214.532 185.58C214.084 185.986 213.622 186.35 213.174 186.644C213.034 186.49 212.712 186.21 212.516 186.084C213.706 185.356 214.924 184.25 215.638 183.088ZM215.064 185.062C215.526 185.608 216.17 186.084 216.898 186.518C217.696 186.056 218.396 185.538 218.914 184.95H215.176L215.064 185.062ZM227.384 194.078C227.314 193.854 227.118 193.434 226.964 193.224C227.188 193.112 227.482 192.888 227.482 192.328V190.074C226.642 190.564 225.788 190.97 224.976 191.264C224.836 191.026 224.556 190.676 224.36 190.494C226.11 189.934 228.168 188.814 229.498 187.582H224.752V186.756H230.31V185.426H226.012V184.628H230.31V183.368H225.298V182.556H230.31V181.254H231.262V182.556H236.428V183.368H231.262V184.628H235.798V185.426H231.262V186.756H236.862V187.582H231.654C232.032 188.534 232.55 189.416 233.194 190.158C234.062 189.57 235.084 188.786 235.7 188.17L236.47 188.702C235.658 189.402 234.608 190.172 233.726 190.718C234.706 191.67 235.91 192.384 237.324 192.79C237.114 192.986 236.834 193.336 236.694 193.602C233.81 192.636 231.808 190.494 230.73 187.582H230.688C230.086 188.254 229.302 188.898 228.448 189.472V192.678L231.92 191.628C231.948 191.88 232.018 192.258 232.074 192.454C228.182 193.714 227.692 193.868 227.384 194.078ZM241.576 189.542V188.646H245.118V189.542H241.576ZM249.436 192.286C250.472 191.936 251.998 191.348 253.524 190.774L253.692 191.544C252.278 192.118 250.808 192.692 249.674 193.154L249.436 192.286ZM249.702 187.064C249.66 186.868 249.52 186.42 249.408 186.182C249.646 186.126 249.87 185.79 250.164 185.3C250.458 184.824 251.41 182.976 251.928 181.268L252.838 181.59C252.236 183.144 251.452 184.768 250.654 186L252.306 185.818C252.6 185.3 252.894 184.754 253.132 184.208L253.916 184.642C253.09 186.224 252.096 187.848 251.074 189.15L253.524 188.632C253.51 188.884 253.552 189.22 253.58 189.402C250.472 190.13 250.052 190.256 249.8 190.424C249.758 190.228 249.618 189.808 249.506 189.57C249.786 189.528 250.094 189.15 250.5 188.632C250.724 188.338 251.256 187.596 251.816 186.672C250.22 186.882 249.898 186.966 249.702 187.064ZM257.57 188.044H256.324V190.214H257.57V188.044ZM258.228 188.044V190.214H259.306V188.044H258.228ZM255.568 187.26H261.084L261.84 187.246V193.154C261.84 193.518 261.784 193.728 261.546 193.854C261.294 193.98 260.972 193.994 260.468 193.994C260.44 193.784 260.342 193.476 260.244 193.28C260.566 193.294 260.846 193.294 260.944 193.294C261.042 193.28 261.084 193.252 261.084 193.14V190.97H259.964V193.616H259.306V190.97H258.228V193.63H257.57V190.97H256.324V193.98H255.568V187.26ZM259.964 188.044V190.214H261.084V188.044H259.964ZM257.36 181.436L258.228 181.184C258.536 181.674 258.844 182.332 258.984 182.794H261.714V185.986H255.54C255.526 188.254 255.302 191.558 254.014 193.854C253.86 193.686 253.482 193.42 253.286 193.322C254.546 191.068 254.672 187.974 254.672 185.832V182.794H257.99C257.836 182.36 257.584 181.856 257.36 181.436ZM255.54 183.592V185.202H260.832V183.592H255.54ZM270.506 182.444V183.956H274.398V182.444H270.506ZM269.638 181.716H275.308V184.684H269.638V181.716ZM263.996 188.31C263.954 188.114 263.814 187.694 263.716 187.456C263.94 187.4 264.122 186.938 264.36 186.322C264.5 185.972 264.822 185.006 265.116 183.844H263.534V182.948H265.326C265.452 182.402 265.55 181.828 265.634 181.268L266.558 181.464C266.46 181.954 266.362 182.458 266.236 182.948H268.616V183.844H265.998C265.662 185.076 265.27 186.252 264.864 187.246H266.306V185.076H267.174V187.246H268.532V188.114H267.174V190.046L268.784 189.738L268.84 190.564L267.174 190.914V194.036H266.306V191.082L263.646 191.628L263.436 190.704C264.206 190.578 265.214 190.41 266.306 190.2V188.114H265.004C264.528 188.114 264.122 188.198 263.996 188.31ZM274.356 186.35H270.646V187.624H274.356V186.35ZM268.448 191.992L269.764 191.908V186.35H268.798V185.538H276.19V186.35H275.224V191.516L276.274 191.446L276.26 192.244L275.224 192.328V194.092H274.356V192.398L268.602 192.846L268.448 191.992ZM274.356 188.352H270.646V189.654H274.356V188.352ZM274.356 190.382H270.646V191.852L274.356 191.586V190.382Z" fill="#999999"/>
</g>
<defs>
<clipPath id="clip0_208_2">
<rect width="300" height="300" fill="white"/>
</clipPath>
</defs>
</svg>
