<?xml version="1.0" standalone="no"?><!DOCTYPE svg PUBLIC "-//W3C//DTD SVG 1.1//EN" "http://www.w3.org/Graphics/SVG/1.1/DTD/svg11.dtd"><svg t="1717171320485" class="icon" viewBox="0 0 1024 1024" version="1.1" xmlns="http://www.w3.org/2000/svg" p-id="10330" xmlns:xlink="http://www.w3.org/1999/xlink" width="200" height="200"><path d="M918.528 429.056s-25.6-21.504-61.44-51.2V226.304c0-10.24-10.24-21.504-21.504-21.504h-59.392c-10.24 0-21.504 10.24-21.504 21.504v66.56c-98.304-80.896-206.848-171.008-217.088-181.248-21.504-21.504-43.008 0-43.008 0l-388.096 317.44c-4.096 4.096-8.192 12.288-8.192 21.504 0 15.36 12.288 27.648 27.648 27.648H174.08v379.904c0 33.792 27.648 63.488 63.488 63.488h156.672V617.472c0-28.672 22.528-51.2 51.2-51.2h132.096c28.672 0 51.2 22.528 51.2 51.2V921.6h163.84c35.84 0 63.488-29.696 63.488-63.488V493.568c0-4.096 0-10.24-2.048-15.36h45.056c15.36 0 27.648-12.288 27.648-27.648 0-8.192-2.048-17.408-8.192-21.504z" fill="#2c2c2c" p-id="10331"></path></svg>