<?xml version="1.0" standalone="no"?><!DOCTYPE svg PUBLIC "-//W3C//DTD SVG 1.1//EN" "http://www.w3.org/Graphics/SVG/1.1/DTD/svg11.dtd"><svg t="1717171234131" class="icon" viewBox="0 0 1024 1024" version="1.1" xmlns="http://www.w3.org/2000/svg" p-id="7111" xmlns:xlink="http://www.w3.org/1999/xlink" width="200" height="200"><path d="M512 1024a512 512 0 1 1 0-1024 512 512 0 0 1 0 1024z m9.916632-740.298105c-43.978105 0-79.548632 12.288-106.711579 37.510737-28.456421 25.222737-45.271579 60.146526-49.152 104.771368h52.385684c3.233684-31.043368 13.581474-54.972632 31.690105-71.787789 17.461895-16.815158 41.391158-24.576 72.434526-24.576 29.749895 0 53.679158 7.114105 70.494316 22.635789 15.521684 14.228211 23.929263 34.277053 23.929263 60.146526 0 25.869474-8.407579 45.918316-24.576 60.146527-16.168421 13.581474-39.450947 20.695579-70.494315 20.695579h-35.570527v41.391157h37.510737c32.336842 0 56.912842 7.114105 75.021474 22.63579 18.108632 15.521684 27.162947 36.864 27.162947 64.673684 0 27.162947-9.701053 49.798737-27.809684 67.907369-20.048842 18.755368-46.565053 28.456421-79.548632 28.456421-29.103158 0-53.032421-8.407579-72.434526-23.929264-22.635789-18.755368-34.923789-46.565053-36.217263-82.782315h-53.679158c3.880421 51.738947 21.989053 91.189895 54.972632 118.352842 27.809684 21.989053 63.380211 33.630316 107.358315 33.630316 47.858526 0 86.662737-13.581474 116.412632-40.744421 29.103158-26.516211 43.978105-60.793263 43.978105-102.831158 0-27.162947-7.760842-49.798737-23.282526-67.907369-14.228211-18.108632-34.923789-31.043368-62.086737-39.450947 50.445474-16.815158 75.668211-51.738947 75.668211-103.477895 0-38.804211-13.581474-69.200842-40.097685-91.836631-27.162947-22.635789-63.380211-33.630316-107.358315-33.630316z" fill="#2c2c2c" p-id="7112"></path></svg>